<svg width="80" height="80" viewBox="0 0 80 80" fill="none" xmlns="http://www.w3.org/2000/svg">
<path d="M60.6337 59.167H25.1336C21.8336 59.167 18.667 57.767 16.4336 55.3337C14.2003 52.9003 13.067 49.6336 13.3337 46.3336L16.1003 13.1337C16.2003 12.1003 15.8336 11.1003 15.1336 10.3337C14.4336 9.56701 13.467 9.16699 12.4336 9.16699H6.66699C5.30033 9.16699 4.16699 8.03366 4.16699 6.66699C4.16699 5.30033 5.30033 4.16699 6.66699 4.16699H12.467C14.9003 4.16699 17.2003 5.20031 18.8336 6.96698C19.7336 7.96698 20.4003 9.13368 20.767 10.4337H62.4003C65.767 10.4337 68.867 11.767 71.1337 14.167C73.367 16.6003 74.5003 19.767 74.2337 23.1337L72.4336 48.1337C72.067 54.2337 66.7337 59.167 60.6337 59.167ZM20.9337 15.4003L18.3337 46.7336C18.167 48.667 18.8003 50.5003 20.1003 51.9336C21.4003 53.3669 23.2003 54.1336 25.1336 54.1336H60.6337C64.1003 54.1336 67.2337 51.2003 67.5003 47.7337L69.3003 22.7337C69.4336 20.767 68.8003 18.9004 67.5003 17.5337C66.2003 16.1337 64.4003 15.3669 62.4336 15.3669H20.9337V15.4003Z" fill="#292D32"/>
<path d="M54.1667 75.8333C50.5 75.8333 47.5 72.8333 47.5 69.1667C47.5 65.5 50.5 62.5 54.1667 62.5C57.8333 62.5 60.8333 65.5 60.8333 69.1667C60.8333 72.8333 57.8333 75.8333 54.1667 75.8333ZM54.1667 67.5C53.2333 67.5 52.5 68.2333 52.5 69.1667C52.5 70.1 53.2333 70.8333 54.1667 70.8333C55.1 70.8333 55.8333 70.1 55.8333 69.1667C55.8333 68.2333 55.1 67.5 54.1667 67.5Z" fill="#292D32"/>
<path d="M27.4997 75.8333C23.833 75.8333 20.833 72.8333 20.833 69.1667C20.833 65.5 23.833 62.5 27.4997 62.5C31.1663 62.5 34.1663 65.5 34.1663 69.1667C34.1663 72.8333 31.1663 75.8333 27.4997 75.8333ZM27.4997 67.5C26.5663 67.5 25.833 68.2333 25.833 69.1667C25.833 70.1 26.5663 70.8333 27.4997 70.8333C28.433 70.8333 29.1663 70.1 29.1663 69.1667C29.1663 68.2333 28.433 67.5 27.4997 67.5Z" fill="#292D32"/>
<path d="M70 29.167H30C28.6333 29.167 27.5 28.0337 27.5 26.667C27.5 25.3003 28.6333 24.167 30 24.167H70C71.3667 24.167 72.5 25.3003 72.5 26.667C72.5 28.0337 71.3667 29.167 70 29.167Z" fill="#292D32"/>
</svg>
